<svg width="59" height="18" viewBox="0 0 59 18" fill="none" xmlns="http://www.w3.org/2000/svg">
<path fill-rule="evenodd" clip-rule="evenodd" d="M6.87635 2.13018C6.9566 1.94962 7.13566 1.83325 7.33325 1.83325C7.99629 1.83325 8.63218 2.09664 9.10102 2.56549C9.56986 3.03433 9.83325 3.67021 9.83325 4.33325V6.49992H13.104C13.3687 6.49736 13.6308 6.55216 13.8724 6.66057C14.1148 6.76939 14.3307 6.92962 14.5051 7.13017C14.6795 7.33072 14.8082 7.56679 14.8823 7.82201C14.9564 8.07724 14.9741 8.34553 14.9343 8.60828L14.0143 14.6082C14.0143 14.6083 14.0143 14.6082 14.0143 14.6082C13.948 15.0453 13.7259 15.4439 13.389 15.7302C13.0529 16.0159 12.625 16.1708 12.184 16.1666H2.66659C2.18035 16.1666 1.71404 15.9734 1.37022 15.6296C1.02641 15.2858 0.833252 14.8195 0.833252 14.3333V9.66659C0.833252 9.18036 1.02641 8.71404 1.37022 8.37022C1.71404 8.02641 2.18035 7.83325 2.66659 7.83325H4.34165L6.87635 2.13018ZM5.16659 8.43936L7.64375 2.86573C7.92577 2.92541 8.18696 3.06564 8.39391 3.27259C8.67522 3.5539 8.83325 3.93543 8.83325 4.33325V6.99992C8.83325 7.27606 9.05711 7.49992 9.33325 7.49992H13.1066L13.1122 7.49989C13.233 7.49852 13.3527 7.52343 13.4629 7.57289C13.5731 7.62236 13.6713 7.69519 13.7505 7.78635C13.8298 7.87751 13.8883 7.98481 13.922 8.10082C13.9556 8.21676 13.9637 8.33863 13.9456 8.45799C13.9456 8.45806 13.9456 8.45791 13.9456 8.45799L13.0256 14.4583C12.9954 14.657 12.8945 14.8381 12.7414 14.9683C12.5882 15.0985 12.3932 15.1689 12.1922 15.1666L5.16659 15.1666V8.43936ZM4.16659 15.1666V8.83325H2.66659C2.44557 8.83325 2.23361 8.92105 2.07733 9.07733C1.92105 9.23361 1.83325 9.44557 1.83325 9.66659V14.3333C1.83325 14.5543 1.92105 14.7662 2.07733 14.9225C2.23361 15.0788 2.44557 15.1666 2.66659 15.1666H4.16659Z" fill="#818181"/>
<path d="M28.6719 6.5625V7.90234H33.6484V8.95508H22.4375V7.90234H27.3867V6.5625H28.6719ZM23.0117 6.31641C25.1924 6.16602 26.9355 5.31836 27.1475 4.26562H23.4766V3.26758H32.623V4.26562H28.9111C29.123 5.3252 30.8457 6.16602 33.0605 6.31641L32.6367 7.28711C30.4766 7.10254 28.6855 6.31641 28.043 5.09277C27.3867 6.30957 25.5957 7.10254 23.4355 7.28711L23.0117 6.31641ZM23.4766 11.457V10.459H27.3867V9.37891H28.6719V10.459H32.582V11.457H23.4766ZM24.3105 13.5898C24.3037 12.5303 25.6367 11.9834 28.0156 11.9766C30.3945 11.9834 31.7549 12.5303 31.7617 13.5898C31.7549 14.6631 30.3945 15.2236 28.0156 15.2168C25.6367 15.2236 24.3037 14.6631 24.3105 13.5898ZM25.6367 13.5898C25.623 14.082 26.4844 14.3418 28.0156 14.3281C29.5742 14.3418 30.415 14.082 30.4219 13.5898C30.415 13.0977 29.5742 12.8721 28.0156 12.8652C26.4844 12.8721 25.623 13.0977 25.6367 13.5898ZM37.832 3.82812C39.6641 3.83496 40.9697 5.50293 40.9766 8.12109C40.9697 10.7666 39.6641 12.4346 37.832 12.4277C36 12.4346 34.6943 10.7666 34.7012 8.12109C34.6943 5.50293 36 3.83496 37.832 3.82812ZM35.9453 8.12109C35.9385 10.0693 36.7178 11.2656 37.832 11.2656C38.9668 11.2656 39.7324 10.0693 39.7324 8.12109C39.7324 6.2002 38.9668 4.99707 37.832 4.99023C36.7178 4.99707 35.9385 6.2002 35.9453 8.12109ZM42.7949 15.1621V2.91211H44.0938V7.71094H46.0625V8.80469H44.0938V15.1621H42.7949ZM57.8613 12.5508V13.6309H46.6504V12.5508H49.3301V9.35156C48.3252 8.79785 47.71 7.92285 47.7168 6.82227C47.71 4.89453 49.6035 3.62988 52.2285 3.62305C54.8604 3.62988 56.7539 4.89453 56.7539 6.82227C56.7539 7.90234 56.166 8.77051 55.1816 9.32422V12.5508H57.8613ZM48.9746 6.82227C48.9746 8.13477 50.3076 8.98926 52.2285 8.99609C54.1357 8.98926 55.4893 8.13477 55.4961 6.82227C55.4893 5.50293 54.1357 4.66211 52.2285 4.66211C50.3076 4.66211 48.9746 5.50293 48.9746 6.82227ZM50.6152 12.5508H53.8691V9.83008C53.3701 9.94629 52.8164 10.0078 52.2285 10.0078C51.6543 10.0078 51.1074 9.94629 50.6152 9.83008V12.5508Z" fill="#818181"/>
</svg>
