<svg width="59" height="18" viewBox="0 0 59 18" fill="none" xmlns="http://www.w3.org/2000/svg">
<path fill-rule="evenodd" clip-rule="evenodd" d="M13.818 3.08386C13.6246 2.91787 13.377 2.82866 13.1222 2.83317L13.1134 2.83333L11.8334 2.83325V9.16658H13.1222C13.377 9.17109 13.6246 9.08196 13.818 8.91597C14.0036 8.75659 14.1269 8.53708 14.1667 8.29628V3.70355C14.1269 3.46276 14.0036 3.24324 13.818 3.08386ZM10.8334 9.56047L8.35619 15.1341C8.07417 15.0744 7.81297 14.9342 7.60603 14.7272C7.32472 14.4459 7.16669 14.0644 7.16669 13.6666V10.9999C7.16669 10.7238 6.94283 10.4999 6.66669 10.4999H2.89335L2.88769 10.4999C2.7669 10.5013 2.64725 10.4764 2.53704 10.4269C2.42683 10.3775 2.32869 10.3046 2.24942 10.2135C2.17015 10.1223 2.11165 10.015 2.07797 9.89901C2.04432 9.78311 2.03625 9.66128 2.05431 9.54195C2.05429 9.54207 2.05432 9.54184 2.05431 9.54195L2.97437 3.54155C3.0045 3.34284 3.10544 3.16171 3.25857 3.03155C3.41171 2.90138 3.60673 2.83094 3.8077 2.83322L10.8334 2.83325V9.56047ZM13.1092 1.83325C13.6074 1.82559 14.0912 2.0005 14.4693 2.32506C14.8486 2.65065 15.0952 3.10418 15.1622 3.59956C15.1652 3.62177 15.1667 3.64417 15.1667 3.66658V8.33325C15.1667 8.35566 15.1652 8.37806 15.1622 8.40027C15.0952 8.89565 14.8486 9.34918 14.4693 9.67477C14.0912 9.99933 13.6074 10.1742 13.1092 10.1666H11.6583L9.12359 15.8697C9.04334 16.0502 8.86428 16.1666 8.66669 16.1666C8.00365 16.1666 7.36776 15.9032 6.89892 15.4343C6.43008 14.9655 6.16669 14.3296 6.16669 13.6666V11.4999H2.89599C2.63127 11.5025 2.36912 11.4477 2.12757 11.3393C1.88511 11.2304 1.6692 11.0702 1.49481 10.8697C1.32042 10.6691 1.19172 10.433 1.11762 10.1778C1.04352 9.92259 1.0258 9.65431 1.06568 9.39155L1.98567 3.39161C1.98565 3.39176 1.98569 3.39147 1.98567 3.39161C2.05205 2.95462 2.27414 2.55588 2.61093 2.26961C2.94705 1.9839 3.3749 1.829 3.81596 1.83325H13.1092Z" fill="#818181"/>
<path d="M27.8789 9.88477V12.8242H25.2266V14.0273C26.5254 14.0205 27.3047 13.9727 28.2617 13.7949L28.3848 14.752C27.25 14.9844 26.3613 15.0049 24.666 15.0117H23.9961V11.9082H26.6348V10.8555H23.9824V9.88477H27.8789ZM22.4785 8.05273C24.3994 7.41699 25.5752 5.87207 25.582 4.19727V3.26758H26.9082V4.19727C26.9014 5.79004 28.1045 7.20508 29.9707 7.7793L29.3418 8.80469C27.9062 8.35352 26.8262 7.40332 26.2656 6.17969C25.7119 7.5127 24.6045 8.56543 23.1211 9.06445L22.4785 8.05273ZM28.248 11.334V10.377H30.2031V9.33789H31.4609V10.377H33.457V11.334H28.248ZM28.6855 13.4668C28.6787 12.4277 29.5811 11.7578 30.8047 11.7578C32.0283 11.7578 32.9443 12.4277 32.9375 13.4668C32.9443 14.5059 32.0283 15.1416 30.8047 15.1484C29.5811 15.1416 28.6787 14.5059 28.6855 13.4668ZM29.793 13.4668C29.7861 13.9658 30.1895 14.2461 30.8047 14.2461C31.4062 14.2461 31.8369 13.9658 31.8438 13.4668C31.8369 12.9473 31.4062 12.6738 30.8047 12.6738C30.1895 12.6738 29.7861 12.9473 29.793 13.4668ZM31.3105 9.02344V2.91211H32.5957V9.02344H31.3105ZM37.873 3.82812C39.541 3.83496 40.751 5.24316 40.9492 7.50586H43.4785V2.91211H44.7637V15.1895H43.4785V8.55859H40.9629C40.8193 10.9512 39.582 12.4346 37.873 12.4277C36.0479 12.4346 34.7559 10.7666 34.7695 8.12109C34.7559 5.50293 36.0479 3.83496 37.873 3.82812ZM36 8.12109C36.0068 10.0693 36.7656 11.2656 37.873 11.2656C38.9805 11.2656 39.7393 10.0693 39.7461 8.12109C39.7393 6.2002 38.9805 4.99707 37.873 4.99023C36.7656 4.99707 36.0068 6.2002 36 8.12109ZM57.8613 12.5508V13.6309H46.6504V12.5508H49.3301V9.35156C48.3252 8.79785 47.71 7.92285 47.7168 6.82227C47.71 4.89453 49.6035 3.62988 52.2285 3.62305C54.8604 3.62988 56.7539 4.89453 56.7539 6.82227C56.7539 7.90234 56.166 8.77051 55.1816 9.32422V12.5508H57.8613ZM48.9746 6.82227C48.9746 8.13477 50.3076 8.98926 52.2285 8.99609C54.1357 8.98926 55.4893 8.13477 55.4961 6.82227C55.4893 5.50293 54.1357 4.66211 52.2285 4.66211C50.3076 4.66211 48.9746 5.50293 48.9746 6.82227ZM50.6152 12.5508H53.8691V9.83008C53.3701 9.94629 52.8164 10.0078 52.2285 10.0078C51.6543 10.0078 51.1074 9.94629 50.6152 9.83008V12.5508Z" fill="#818181"/>
</svg>
